<?xml version="1.0" encoding="UTF-8"?>
<svg width="50px" height="61px" viewBox="0 0 50 61" version="1.1" xmlns="http://www.w3.org/2000/svg" xmlns:xlink="http://www.w3.org/1999/xlink">
    <title>Group 2</title>
    <g id="Page-1" stroke="none" stroke-width="1" fill="none" fill-rule="evenodd">
        <g id="Group-2" stroke="#979797">
            <rect id="Rectangle" fill="#FEFEFA" x="0.5" y="37.0625" width="49" height="22.4375" rx="8"></rect>
            <rect id="Rectangle" fill="#C7DDB5" x="0.5" y="0.5" width="49" height="45.40625" rx="8"></rect>
            <g id="Group" transform="translate(4.3689, 1.4062)">
                <path d="M1.04575094,10.9887504 C9.38946894,11.5028886 15.1795391,21.6502077 19.2187651,34.9177804" id="Path"></path>
                <path d="M19.453761,40.925116 C24.1115192,23.3988741 27.8564694,21.3987004 41.3867092,12.327007" id="Path-3"></path>
                <path d="M0.950253029,10.5989006 C0.201915946,28.7957542 -3.22097953,34.7175772 10.0264906,45.0333584" id="Path-4"></path>
                <path d="M19.6446952,7.6861594e-16 C27.1994883,4.8265115 28.8737579,9.04804813 30.2978414,20.4272207" id="Path-5"></path>
                <path d="M41.1676432,12.9904357 C41.5877396,26.4449378 46.6453515,37.2703286 30.3265521,45.090354" id="Path-6"></path>
                <path d="M7.88266212,28.1056671 C9.58885538,33.638335 12.2419332,38.8526738 10.8959946,44.7620594 C9.58474466,50.5191433 3.17780463,57.4867777 14.046408,58.0283537 C19.291228,58.2896999 24.5554096,58.227625 29.8033709,58.0283537 C30.3658986,58.0069939 31.1760404,57.8738915 31.3381877,57.3717645 C34.6758001,47.0360663 21.706224,45.2023812 34.0308488,29.6194701" id="Path-7"></path>
                <path d="M7.63787476,28.2447363 C14.4237402,38.097733 18.6108043,46.889666 19.5443323,58.59375" id="Path-8"></path>
                <path d="M32.72858,31.68955 C24.793121,40.0001286 19.9042653,47.6317085 19.066997,58.5663921" id="Path-9"></path>
                <path d="M10.8715159,7.6861594e-16 C17.9819094,3.99910953 19.5576926,7.49695417 20.8980065,16.9254115" id="Path-5" transform="translate(15.8848, 8.4627) scale(-1, 1) translate(-15.8848, -8.4627)"></path>
            </g>
        </g>
    </g>
</svg>