<?xml version="1.0" encoding="UTF-8"?>
<svg width="52px" height="52px" viewBox="0 0 52 52" version="1.1" xmlns="http://www.w3.org/2000/svg" xmlns:xlink="http://www.w3.org/1999/xlink">
    <title>addicon</title>
    <defs>
        <path d="M14,0 C14.3333334,10.3333339 14.6666666,20.6666661 15,31" id="path-1"></path>
    </defs>
    <g id="Page-1" stroke="none" stroke-width="1" fill="none" fill-rule="evenodd">
        <g id="addicon">
            <circle id="Oval" fill="#C7DDB5" cx="26" cy="26" r="26"></circle>
            <g id="Group-3" transform="translate(12, 11)" stroke="#979797">
                <polyline id="Path-15" points="0 15.5 3.29078014 15.5 5.19326241 15.5 7.14716312 15.5 9.08392435 15.5 10.929275 15.5 12.4489756 15.5 13.7230102 15.5 14.7913712 15.5 15.6454886 15.5 16.3967691 15.5 17.1052009 15.5 17.6393814 15.5 18.1564224 15.5 18.6591805 15.5 19.1705083 15.5 19.6732664 15.5 20.178881 15.5 20.6844957 15.5 21.0729905 15.5 21.4614854 15.5 21.8471237 15.5 22.232762 15.5 22.6212569 15.5 22.9783294 15.5 23.266844 15.5 23.4925138 15.5 23.7438928 15.5 23.9581363 15.5 24.1866627 15.5 24.4466115 15.5 24.6522853 15.5 24.857959 15.5 25.0493499 15.5 25.2407407 15.5 25.4492711 15.5 25.6406619 15.5 25.8948976 15.5 26.1691292 15.5 26.4262214 15.5 26.6461781 15.5 26.8689913 15.5 27.2260638 15.5 27.6145587 15.5 28.1144602 15.5 28.6143617 15.5 29 15.5"></polyline>
                <g id="Path-16" transform="translate(14.5, 15.5) scale(-1, 1) translate(-14.5, -15.5)">
                    <use xlink:href="#path-1"></use>
                    <use xlink:href="#path-1"></use>
                </g>
            </g>
        </g>
    </g>
</svg>