<?xml version="1.0" encoding="UTF-8"?>
<svg width="151px" height="153px" viewBox="0 0 151 153" version="1.1" xmlns="http://www.w3.org/2000/svg" xmlns:xlink="http://www.w3.org/1999/xlink">
    <title>photo upload</title>
    <defs>
        <path d="M13,0 C13.3333334,9.66666724 13.6666666,19.3333328 14,29" id="path-1"></path>
    </defs>
    <g id="Page-1" stroke="none" stroke-width="1" fill="none" fill-rule="evenodd">
        <g id="photo-upload" stroke="#979797">
            <rect id="Rectangle" fill="#C7DDB5" opacity="0.65" x="0.5" y="0.5" width="149.760976" height="152" rx="8"></rect>
            <g id="Group-3" transform="translate(62, 62)">
                <polyline id="Path-15" points="0 14.5 3.06382979 14.5 4.83510638 14.5 6.65425532 14.5 8.45744681 14.5 10.1755319 14.5 11.5904255 14.5 12.7765957 14.5 13.7712766 14.5 14.5664894 14.5 15.2659574 14.5 15.9255319 14.5 16.4228723 14.5 16.9042553 14.5 17.3723404 14.5 17.8484043 14.5 18.3164894 14.5 18.787234 14.5 19.2579787 14.5 19.6196809 14.5 19.981383 14.5 20.3404255 14.5 20.6994681 14.5 21.0611702 14.5 21.393617 14.5 21.662234 14.5 21.8723404 14.5 22.106383 14.5 22.3058511 14.5 22.518617 14.5 22.7606383 14.5 22.9521277 14.5 23.143617 14.5 23.3218085 14.5 23.5 14.5 23.6941489 14.5 23.8723404 14.5 24.1090426 14.5 24.3643617 14.5 24.6037234 14.5 24.8085106 14.5 25.0159574 14.5 25.3484043 14.5 25.7101064 14.5 26.1755319 14.5 26.6409574 14.5 27 14.5"></polyline>
                <g id="Path-16" transform="translate(13.5, 14.5) scale(-1, 1) translate(-13.5, -14.5)">
                    <use xlink:href="#path-1"></use>
                    <use xlink:href="#path-1"></use>
                </g>
            </g>
        </g>
    </g>
</svg>